<svg xmlns="http://www.w3.org/2000/svg" width="92" height="40" fill="none"><path d="M47.6466 14.4962c.151-1.0627.4908-1.9974.9943-2.8169.4908-.8194.9691-1.2291 1.4474-1.2291.6041 0 .9062.4353.9062 1.2932 0 1.2931-.3524 2.5863-1.0572 3.8667.2391.2432.6418.3585 1.2334.3585 1.3593 0 2.4291-.3841 3.222-1.1652.793-.781 1.1957-1.7797 1.1957-3.0088 0-1.2292-.3146-2.13823-.9314-2.74-.6167-.60178-1.4977-.89626-2.6305-.89626-2.1522 0-3.7128 1.01149-4.682 3.02166l.5286-3.02166-4.8582.60177-2.9955 15.85099 6.0917-.6018 1.5355-9.5131Zm26.7077-9.2443-5.9784.60178-1.6865 8.70652c-.6923 3.2777-1.0321 5.6592-1.0321 7.1572 0 .653.2517 1.2804.7677 1.8566.6293.7042 1.4349 1.0499 2.4166 1.0499 1.9382 0 3.222-.7426 3.8262-2.2407-.8056-.0384-1.2083-.6274-1.2083-1.7669 0-.5121.1636-1.5108.5034-2.996l2.3914-12.3684ZM57.2372 10.527l-2.7564 14.0969 5.9407-.6018 2.6556-13.9176 1.4726-.12804.3021-1.53644-1.5103.08962.4405-2.0998c.3524-1.7541 1.6739-3.93073 2.5172-3.93073.5538 0 1.6865.3329 1.4726 1.63887-.0126.10243.1636.02561.151.10243l5.6637-.66579c.1007-.80663-1.1579-1.62607-2.3158-2.15102-.8684-.38411-2.7941-.665788-4.6443-.665788-1.8501 0-3.8387.652988-4.9463 1.139528-1.5103.67859-3.1591 3.04727-3.5115 4.50689l-.6168 2.36868-1.6991.11524s.5916.89625.7048 1.67725c-.0251-.0128.6797-.0384.6797-.0384ZM31.7881 22.7545c.151.5634.5034 1.0115 1.0572 1.3444.5538.3457 1.2838.5122 2.2278.5122.9313 0 1.825-.3457 2.6934-1.0243.4153-.3201.6796-.717.7929-1.1908-.5664-.0768-.9439-.2945-1.1201-.6402-.1762-.3457-.2644-.6786-.2644-.9986 0-.3201.0252-.6274.0882-.9219l2.1773-11.67696-5.8021.60177-1.5859 8.15599c-.0755.4353-.2014.8322-.3776 1.1651-.5538 1.0627-1.2082 1.5876-1.976 1.5876-.6922 0-1.0321-.5761-1.0321-1.7413 0-.256.0378-.6145.1133-1.0499l1.6488-8.73207-5.9784.60178-1.46 7.87429c3.2221 3.2393 5.3491 5.6848 6.1924 7.6438.0377.0128.0755.0384.1133.0512 1.0949-.2817 1.9256-.8067 2.492-1.5621ZM22.2604 8.84974v.11523c.0126 0 .0126-.03841 0-.11523Zm63.9374-.10243-1.4726 7.46449c-.1762.8963-.4405 1.6005-.8055 2.1255-.365.5249-.7551.781-1.1831.781-.4279 0-.7551-.0768-.9817-.2433-.1384-.1152-.2517-.2689-.3524-.4609-.1007-.1921-.151-.4225-.151-.717s.0251-.5762.0881-.8579c.0629-.2817.1132-.5505.151-.8066l1.4726-7.88707-5.9784.60178-1.3845 7.49019c-.1133.6017-.1762 1.1907-.1762 1.7669 0 .5761.0755 1.1267.2391 1.6516.4909 1.7413 1.9005 2.5992 4.2416 2.5992 1.8627 0 3.3101-.5378 4.3296-1.6133-.2014.9603-.9188 5.1727-1.1328 6.069-.1007.3969-.2013.7554-.302 1.1011l3.0332 3.0857c.0252-.0256.0504-.0512.0755-.0769 1.4852-1.5108 2.3159-2.9704 3.9017-10.8959L92 8.15834l-5.8022.58897ZM75.8898 25.9298c-6.8343 5.6337-17.1045 9.9485-31.2639 5.8769-6.0413-1.7413-10.9373-3.7643-15.0404-5.6464.0755.4353.0881.9859.0755 1.3572 4.4555 2.1894 9.276 4.5197 14.021 6.2354 6.5825 2.3815 18.0233 6.1714 32.2204 3.1241-.0126-.0128-.0126-10.9856-.0126-10.9472Zm-60.879-14.9675c-3.0836-2.99602-2.0137-7.65656 2.6305-6.97796 4.1912.60177 4.5939 4.1868 4.6317 4.8654-.0629-1.85654-.7174-5.44157-5.2736-6.72193C11.9398.937064 7.45917 4.33004 7.68572 8.7089c.1762 3.2905 3.59958 6.5939 8.49558 10.8447 2.6054 2.1638 3.7759 3.2265 4.2793 3.7131.0755.0768.151.1536.2266.2304.0881.0897.1258.1281.1258.1281 2.7312 3.0729 1.611 8.54-1.5858 9.8588-4.594 1.895-14.7006.9091-15.21663-5.3647-.50344-6.261 7.60203-7.3365 11.02543-6.7092.6922.1281 1.4222.3201 2.2152.5762-.8559-.8066-1.825-1.6261-2.5676-2.215C6.06211 18.1068.385778 22.5113.0207811 26.1859-.293871 29.2844 2.89041 35.2637 14.6584 35.2637c8.4327 0 13.2784-4.6605 13.4797-8.476.0252-.6402-.0881-1.1908-.151-1.434-.8936-3.0089-6.9349-8.5017-12.9763-14.3914Zm62.7795 14.3146v11.2288l2.5172-2.4071 2.9452 5.6592 1.6739-1.0755-2.7941-5.1855h3.5241l-7.8663-8.2199Z" fill="#fff"/></svg>