<?xml version="1.0" encoding="UTF-8" standalone="no"?><!-- Generator: Gravit.io --><svg xmlns="http://www.w3.org/2000/svg" xmlns:xlink="http://www.w3.org/1999/xlink" style="isolation:isolate" viewBox="0 0 700 700" width="700pt" height="700pt"><defs><clipPath id="_clipPath_mZC9UsI9Q0jimLweLrjYOcL5CKLIAhKT"><rect width="700" height="700"/></clipPath></defs><g clip-path="url(#_clipPath_mZC9UsI9Q0jimLweLrjYOcL5CKLIAhKT)"><clipPath id="_clipPath_1WEpTp9VQdQOoLjmFALfyfAUtlpWx5fY"><rect x="0" y="0" width="700" height="700" transform="matrix(1,0,0,1,0,0)" fill="rgb(255,255,255)"/></clipPath><g clip-path="url(#_clipPath_1WEpTp9VQdQOoLjmFALfyfAUtlpWx5fY)"><g><defs><linearGradient id="_lgradient_0" x1="0.020357142857142626" y1="0.028928571428571272" x2="0.9621428571428573" y2="0.9739285714285723"><stop offset="0%" style="stop-color:#2DFFF9"/><stop offset="53.75%" style="stop-color:#2DD6FD"/><stop offset="100%" style="stop-color:#9300FF"/></linearGradient></defs><path d="M 154 0 L 546 0 C 630.995 0 700 69.005 700 154 L 700 546 C 700 630.995 630.995 700 546 700 L 154 700 C 69.005 700 0 630.995 0 546 L 0 154 C 0 69.005 69.005 0 154 0 Z" style="stroke:none;fill:url(#_lgradient_0);stroke-miterlimit:10;"/><path d=" M 401.13 414.172 C 398.248 418.883 395.155 423.489 391.857 427.922 C 387.391 433.955 382.449 439.618 377.073 444.884 C 371.968 449.9 366.409 454.441 360.459 458.483 C 354.682 462.399 348.517 465.733 342.074 468.486 C 335.621 471.198 328.944 473.304 322.07 474.721 C 315.068 476.194 307.95 477.002 300.781 477.17 C 293.286 477.354 285.793 476.933 278.379 475.909 C 269.793 474.737 240.026 461.454 233.964 456.335 C 228.698 451.9 223.746 447.116 219.138 442.047 C 210.315 432.415 203.029 421.536 197.553 409.79 C 192.214 398.197 188.814 385.839 187.456 373.192 C 186.741 366.692 186.524 360.137 186.78 353.612 C 187.065 346.784 190.457 329.802 190.457 329.802 C 193.615 318.942 196.611 311.159 201.177 302.093 C 205.517 293.455 210.656 285.206 216.53 277.449 C 222.237 269.95 228.704 263.015 235.828 256.773 C 242.896 250.574 250.609 245.155 258.869 240.568 C 267.262 235.91 276.127 232.175 285.338 229.369 C 294.931 226.457 304.814 224.524 314.823 223.567 C 325.516 222.571 336.249 222.526 346.955 223.458 C 358.584 224.44 370.13 226.359 381.458 229.179 C 381.606 229.221 381.774 229.271 381.944 229.322 L 384.552 230.078 C 384.572 230.083 384.572 230.083 384.594 230.088 C 396.07 233.464 407.236 237.754 418.001 242.887 C 427.836 247.612 437.231 253.163 446.052 259.506 C 454.269 265.448 461.904 272.132 468.864 279.44 C 475.481 286.45 481.411 294.037 486.591 302.113 C 491.634 309.974 495.947 318.239 499.518 326.845 C 503.049 335.35 505.878 344.114 507.986 353.043 C 510.098 361.975 511.582 371.01 512.41 380.143 C 513.234 389.226 513.51 398.37 513.2 407.474 C 513.194 409.625 513.047 411.773 512.79 413.91 C 512.559 415.969 512.118 418.027 511.504 420.061 C 510.848 422.217 509.925 424.29 508.704 426.206 C 507.387 428.279 505.738 430.089 503.791 431.615 C 501.886 433.082 499.732 434.232 497.448 435.004 C 495.375 435.685 493.233 436.142 491.049 436.296 C 489.04 436.483 487.021 436.483 485.004 436.329 C 482.984 436.175 480.97 435.933 478.962 435.601 C 474.608 434.842 470.284 433.913 466.019 432.797 C 465.916 432.767 465.835 432.739 465.726 432.711 L 401.13 414.172 L 401.13 414.172 L 401.13 414.172 L 401.13 414.172 L 401.13 414.172 Z " fill-rule="evenodd" fill="rgb(0,0,38)"/></g></g></g></svg>